<?xml version="1.0" encoding="utf-8"?>
<!-- Generator: Adobe Illustrator 27.0.0, SVG Export Plug-In . SVG Version: 6.00 Build 0)  -->
<svg version="1.1" id="Layer_1" xmlns="http://www.w3.org/2000/svg" xmlns:xlink="http://www.w3.org/1999/xlink" x="0px" y="0px"
	 viewBox="0 0 256 256" style="enable-background:new 0 0 256 256;" xml:space="preserve">
<style type="text/css">
	.st0{fill:#3C3734;}
</style>
<path class="st0" d="M118.4,213.22l1.48,2.12H128h45.63c16.86,0,31.61-3.62,43.85-10.75c12.19-7.1,21.75-17.29,28.42-30.3
	c6.7-13.12,10.09-28.73,10.09-46.41c0-17.85-3.4-33.5-10.09-46.53c-6.66-12.91-16.22-23.02-28.41-30.06
	c-12.27-7.06-27.03-10.64-43.86-10.64H128h-9.07V193.9v9.76l-5.59-8L5.02,40.66H0v174.69h5.99V62.1v-9.76l5.59,8L118.4,213.22z
	 M124.95,207.49V48.51v-3.07h3.07h45.14c15.21,0,28.76,3.5,40.29,10.39c11.55,6.93,20.63,16.69,26.99,29.01
	c6.35,12.3,9.56,26.78,9.56,43.04c0,16.26-3.22,30.78-9.56,43.15c-6.36,12.41-15.45,22.21-26.99,29.14
	c-11.53,6.9-25.08,10.39-40.29,10.39h-45.14h-3.07V207.49z"/>
</svg>
